<?xml version="1.0" standalone="no"?>
<!DOCTYPE svg PUBLIC "-//W3C//DTD SVG 1.1//EN"
"http://www.w3.org/Graphics/SVG/1.1/DTD/svg11.dtd">

<svg width="528" height="390" view_box="0 0 528 390"
xmlns="http://www.w3.org/2000/svg"
xmlns:link="http://www.w3.org/1999/xlink">\n\n<desc>Généré par Mocodo 2.3.7 le Sun, 22 May 2022 23:33:55</desc>

<rect id="frame" x="0" y="0" width="528" height="390" fill="#f5f5f5" stroke="none" stroke-width="0"/>

<!-- Association Jouer -->
<line x1="447" y1="296" x2="319" y2="296" stroke="#bf812d" stroke-width="2"/>
<text x="349" y="313.0" fill="#01665e" font-family="Verdana" font-size="12">1,1</text>
<line x1="319" y1="144" x2="319" y2="296" stroke="#bf812d" stroke-width="2"/>
<text x="324.0" y="203" fill="#01665e" font-family="Verdana" font-size="12">1,N</text>
<g id="association-Jouer">
	<path d="M 329 271 a 14 14 90 0 1 14 14 V 296 h -48 V 285 a 14 14 90 0 1 14 -14" fill="#dfc27d" stroke="#dfc27d" stroke-width="0"/>
	<path d="M 343 296.0 v 11 a 14 14 90 0 1 -14 14 H 309 a 14 14 90 0 1 -14 -14 V 296.0 H 48" fill="#f6e8c3" stroke="#f6e8c3" stroke-width="0"/>
	<rect x="295" y="271" width="48" height="50" fill="none" rx="14" stroke="#bf812d" stroke-width="2"/>
	<line x1="295" y1="296" x2="343" y2="296" stroke="#bf812d" stroke-width="1"/>
	<text x="302" y="288.7" fill="#000000" font-family="Verdana" font-size="12">Jouer</text>
</g>

<!-- Association Participer -->
<line x1="55" y1="144" x2="198" y2="144" stroke="#bf812d" stroke-width="2"/>
<text x="103" y="161.0" fill="#01665e" font-family="Verdana" font-size="12">0,N</text>
<line x1="319" y1="144" x2="198" y2="144" stroke="#bf812d" stroke-width="2"/>
<text x="246" y="161.0" fill="#01665e" font-family="Verdana" font-size="12">2,N</text>
<g id="association-Participer">
	<path d="M 220 119 a 14 14 90 0 1 14 14 V 144 h -72 V 133 a 14 14 90 0 1 14 -14" fill="#dfc27d" stroke="#dfc27d" stroke-width="0"/>
	<path d="M 234 144.0 v 11 a 14 14 90 0 1 -14 14 H 176 a 14 14 90 0 1 -14 -14 V 144.0 H 72" fill="#f6e8c3" stroke="#f6e8c3" stroke-width="0"/>
	<rect x="162" y="119" width="72" height="50" fill="none" rx="14" stroke="#bf812d" stroke-width="2"/>
	<line x1="162" y1="144" x2="234" y2="144" stroke="#bf812d" stroke-width="1"/>
	<text x="169" y="136.7" fill="#000000" font-family="Verdana" font-size="12">Participer</text>
</g>

<!-- Association pratiquer -->
<line x1="198" y1="43" x2="55" y2="43" stroke="#bf812d" stroke-width="2"/>
<text x="126" y="60.0" fill="#01665e" font-family="Verdana" font-size="12">0,N</text>
<line x1="55" y1="144" x2="55" y2="43" stroke="#bf812d" stroke-width="2"/>
<text x="60.0" y="102" fill="#01665e" font-family="Verdana" font-size="12">1,1</text>
<g id="association-pratiquer">
	<path d="M 76 18 a 14 14 90 0 1 14 14 V 43 h -70 V 32 a 14 14 90 0 1 14 -14" fill="#dfc27d" stroke="#dfc27d" stroke-width="0"/>
	<path d="M 90 43.0 v 11 a 14 14 90 0 1 -14 14 H 34 a 14 14 90 0 1 -14 -14 V 43.0 H 70" fill="#f6e8c3" stroke="#f6e8c3" stroke-width="0"/>
	<rect x="20" y="18" width="70" height="50" fill="none" rx="14" stroke="#bf812d" stroke-width="2"/>
	<line x1="20" y1="43" x2="90" y2="43" stroke="#bf812d" stroke-width="1"/>
	<text x="27" y="35.7" fill="#000000" font-family="Verdana" font-size="12">pratiquer</text>
</g>

<!-- Association A Parent -->
<path d="M447 296 C 405.666666667 216.666666667 405.666666667 166.0 447 144" fill="none" stroke="#bf812d" stroke-width="2"/>
<text x="422.0" y="203" fill="#01665e" font-family="Verdana" font-size="12">0,1</text>
<path d="M447 296 C 489.666666667 216.666666667 489.666666667 166.0 447 144" fill="none" stroke="#bf812d" stroke-width="2"/>
<text x="451.0" y="203" fill="#01665e" font-family="Verdana" font-size="12">0,N</text>
<path d="M 478.207725048 210.990805827 L 473.701026581 198.353968053 L 479.173975939 203.049372756 L 485.613176187 199.803344389 Z" fill="#bf812d" stroke-width="0"/>
<g id="association-A Parent">
	<path d="M 466 119 a 14 14 90 0 1 14 14 V 144 h -66 V 133 a 14 14 90 0 1 14 -14" fill="#dfc27d" stroke="#dfc27d" stroke-width="0"/>
	<path d="M 480 144.0 v 11 a 14 14 90 0 1 -14 14 H 428 a 14 14 90 0 1 -14 -14 V 144.0 H 66" fill="#f6e8c3" stroke="#f6e8c3" stroke-width="0"/>
	<rect x="414" y="119" width="66" height="50" fill="none" rx="14" stroke="#bf812d" stroke-width="2"/>
	<line x1="414" y1="144" x2="480" y2="144" stroke="#bf812d" stroke-width="1"/>
	<text x="421" y="136.7" fill="#000000" font-family="Verdana" font-size="12">A Parent</text>
</g>

<!-- Association est_membre -->
<line x1="198" y1="296" x2="55" y2="296" stroke="#bf812d" stroke-width="2"/>
<text x="106" y="313.0" fill="#01665e" font-family="Verdana" font-size="12">0,N</text>
<line x1="55" y1="144" x2="55" y2="296" stroke="#bf812d" stroke-width="2"/>
<text x="60.0" y="195" fill="#01665e" font-family="Verdana" font-size="12">0,N</text>
<g id="association-est_membre">
	<path d="M 87 271 a 14 14 90 0 1 14 14 V 296 h -92 V 285 a 14 14 90 0 1 14 -14" fill="#dfc27d" stroke="#dfc27d" stroke-width="0"/>
	<path d="M 101 296.0 v 11 a 14 14 90 0 1 -14 14 H 23 a 14 14 90 0 1 -14 -14 V 296.0 H 92" fill="#f6e8c3" stroke="#f6e8c3" stroke-width="0"/>
	<rect x="9" y="271" width="92" height="50" fill="none" rx="14" stroke="#bf812d" stroke-width="2"/>
	<line x1="9" y1="296" x2="101" y2="296" stroke="#bf812d" stroke-width="1"/>
	<text x="16" y="288.7" fill="#000000" font-family="Verdana" font-size="12">est_membre</text>
</g>

<!-- Entity Activite -->
<g id="entity-Activite">
	<g id="frame-Activite">
		<rect x="153" y="9" width="90" height="25" fill="#80cdc1" stroke="#80cdc1" stroke-width="0"/>
		<rect x="153" y="34.0" width="90" height="43" fill="#c7eae5" stroke="#c7eae5" stroke-width="0"/>
		<rect x="153" y="9" width="90" height="68" fill="none" stroke="#35978f" stroke-width="2"/>
		<line x1="153" y1="34" x2="243" y2="34" stroke="#35978f" stroke-width="1"/>
	</g>
	<text x="175" y="26.7" fill="#000000" font-family="Verdana" font-size="12">Activite</text>
	<text x="158" y="51.8" fill="#000000" font-family="Verdana" font-size="12">id_activite</text>
	<line x1="158" y1="54" x2="221" y2="54" stroke="#000000" stroke-width="1"/>
	<text x="158" y="68.8" fill="#000000" font-family="Verdana" font-size="12">nom_activite</text>
</g>

<!-- Entity Participant -->
<g id="entity-Participant">
	<g id="frame-Participant">
		<rect x="133" y="245" width="130" height="25" fill="#80cdc1" stroke="#80cdc1" stroke-width="0"/>
		<rect x="133" y="270.0" width="130" height="77" fill="#c7eae5" stroke="#c7eae5" stroke-width="0"/>
		<rect x="133" y="245" width="130" height="102" fill="none" stroke="#35978f" stroke-width="2"/>
		<line x1="133" y1="270" x2="263" y2="270" stroke="#35978f" stroke-width="1"/>
	</g>
	<text x="165" y="262.7" fill="#000000" font-family="Verdana" font-size="12">Participant</text>
	<text x="138" y="287.7" fill="#000000" font-family="Verdana" font-size="12">id_participant</text>
	<line x1="138" y1="290" x2="222" y2="290" stroke="#000000" stroke-width="1"/>
	<text x="138" y="304.8" fill="#000000" font-family="Verdana" font-size="12">pseudo_participant</text>
	<text x="138" y="321.8" fill="#000000" font-family="Verdana" font-size="12">nom_participant</text>
	<text x="138" y="338.8" fill="#000000" font-family="Verdana" font-size="12">prenom_participant</text>
</g>

<!-- Entity Tournoi -->
<g id="entity-Tournoi">
	<g id="frame-Tournoi">
		<rect x="273" y="102" width="92" height="25" fill="#80cdc1" stroke="#80cdc1" stroke-width="0"/>
		<rect x="273" y="127.0" width="92" height="59" fill="#c7eae5" stroke="#c7eae5" stroke-width="0"/>
		<rect x="273" y="102" width="92" height="84" fill="none" stroke="#35978f" stroke-width="2"/>
		<line x1="273" y1="127" x2="365" y2="127" stroke="#35978f" stroke-width="1"/>
	</g>
	<text x="295" y="119.7" fill="#000000" font-family="Verdana" font-size="12">Tournoi</text>
	<text x="278" y="144.8" fill="#000000" font-family="Verdana" font-size="12">id_tournoi</text>
	<line x1="278" y1="147" x2="340" y2="147" stroke="#000000" stroke-width="1"/>
	<text x="278" y="161.8" fill="#000000" font-family="Verdana" font-size="12">nom_tournoi</text>
	<text x="278" y="178.8" fill="#000000" font-family="Verdana" font-size="12">regle_tournoi</text>
</g>

<!-- Entity Match -->
<g id="entity-Match">
	<g id="frame-Match">
		<rect x="375" y="211" width="144" height="25" fill="#80cdc1" stroke="#80cdc1" stroke-width="0"/>
		<rect x="375" y="236.0" width="144" height="145" fill="#c7eae5" stroke="#c7eae5" stroke-width="0"/>
		<rect x="375" y="211" width="144" height="170" fill="none" stroke="#35978f" stroke-width="2"/>
		<line x1="375" y1="236" x2="519" y2="236" stroke="#35978f" stroke-width="1"/>
	</g>
	<text x="428" y="228.7" fill="#000000" font-family="Verdana" font-size="12">Match</text>
	<text x="380" y="253.7" fill="#000000" font-family="Verdana" font-size="12">id_match</text>
	<line x1="380" y1="256" x2="437" y2="256" stroke="#000000" stroke-width="1"/>
	<text x="380" y="270.7" fill="#000000" font-family="Verdana" font-size="12">equipe1_match</text>
	<text x="380" y="287.7" fill="#000000" font-family="Verdana" font-size="12">equipe2_match</text>
	<text x="380" y="304.8" fill="#000000" font-family="Verdana" font-size="12">score_equipe1_match</text>
	<text x="380" y="321.8" fill="#000000" font-family="Verdana" font-size="12">score_equipe2_match</text>
	<text x="380" y="338.8" fill="#000000" font-family="Verdana" font-size="12">round_match</text>
	<text x="380" y="355.8" fill="#000000" font-family="Verdana" font-size="12">id_parent_match</text>
	<text x="380" y="372.8" fill="#000000" font-family="Verdana" font-size="12">type_match</text>
</g>

<!-- Entity Equipe -->
<g id="entity-Equipe">
	<g id="frame-Equipe">
		<rect x="12" y="110" width="86" height="25" fill="#80cdc1" stroke="#80cdc1" stroke-width="0"/>
		<rect x="12" y="135.0" width="86" height="43" fill="#c7eae5" stroke="#c7eae5" stroke-width="0"/>
		<rect x="12" y="110" width="86" height="68" fill="none" stroke="#35978f" stroke-width="2"/>
		<line x1="12" y1="135" x2="98" y2="135" stroke="#35978f" stroke-width="1"/>
	</g>
	<text x="34" y="127.7" fill="#000000" font-family="Verdana" font-size="12">Equipe</text>
	<text x="17" y="152.8" fill="#000000" font-family="Verdana" font-size="12">id_equipe</text>
	<line x1="17" y1="155" x2="77" y2="155" stroke="#000000" stroke-width="1"/>
	<text x="17" y="169.8" fill="#000000" font-family="Verdana" font-size="12">nom_equipe</text>
</g>
</svg>