<?xml version="1.0" standalone="no"?>
<!DOCTYPE svg PUBLIC "-//W3C//DTD SVG 1.1//EN"
"http://www.w3.org/Graphics/SVG/1.1/DTD/svg11.dtd">

<svg width="413" height="381" view_box="0 0 413 381"
xmlns="http://www.w3.org/2000/svg"
xmlns:link="http://www.w3.org/1999/xlink">\n\n<desc>Généré par Mocodo 2.3.7 le Mon, 02 May 2022 00:36:19</desc>

<rect id="frame" x="0" y="0" width="413" height="381" fill="#f5f5f5" stroke="none" stroke-width="0"/>

<!-- Association Jouer -->
<line x1="73" y1="85" x2="196" y2="85" stroke="#bf812d" stroke-width="2"/>
<text x="142" y="102.0" fill="#01665e" font-family="Verdana" font-size="12">1,1</text>
<line x1="339" y1="85" x2="196" y2="85" stroke="#bf812d" stroke-width="2"/>
<text x="266" y="102.0" fill="#01665e" font-family="Verdana" font-size="12">1,N</text>
<g id="association-Jouer">
	<path d="M 206 60 a 14 14 90 0 1 14 14 V 85 h -48 V 74 a 14 14 90 0 1 14 -14" fill="#dfc27d" stroke="#dfc27d" stroke-width="0"/>
	<path d="M 220 85.0 v 11 a 14 14 90 0 1 -14 14 H 186 a 14 14 90 0 1 -14 -14 V 85.0 H 48" fill="#f6e8c3" stroke="#f6e8c3" stroke-width="0"/>
	<rect x="172" y="60" width="48" height="50" fill="none" rx="14" stroke="#bf812d" stroke-width="2"/>
	<line x1="172" y1="85" x2="220" y2="85" stroke="#bf812d" stroke-width="1"/>
	<text x="179" y="77.7" fill="#000000" font-family="Verdana" font-size="12">Jouer</text>
</g>

<!-- Association Participer -->
<line x1="196" y1="220" x2="339" y2="220" stroke="#bf812d" stroke-width="2"/>
<text x="244" y="237.0" fill="#01665e" font-family="Verdana" font-size="12">0,N</text>
<line x1="339" y1="85" x2="339" y2="220" stroke="#bf812d" stroke-width="2"/>
<text x="344.0" y="144" fill="#01665e" font-family="Verdana" font-size="12">2,N</text>
<g id="association-Participer">
	<path d="M 361 195 a 14 14 90 0 1 14 14 V 220 h -72 V 209 a 14 14 90 0 1 14 -14" fill="#dfc27d" stroke="#dfc27d" stroke-width="0"/>
	<path d="M 375 220.0 v 11 a 14 14 90 0 1 -14 14 H 317 a 14 14 90 0 1 -14 -14 V 220.0 H 72" fill="#f6e8c3" stroke="#f6e8c3" stroke-width="0"/>
	<rect x="303" y="195" width="72" height="50" fill="none" rx="14" stroke="#bf812d" stroke-width="2"/>
	<line x1="303" y1="220" x2="375" y2="220" stroke="#bf812d" stroke-width="1"/>
	<text x="310" y="212.7" fill="#000000" font-family="Verdana" font-size="12">Participer</text>
</g>

<!-- Association pratiquer -->
<line x1="73" y1="321" x2="73" y2="220" stroke="#bf812d" stroke-width="2"/>
<text x="78.0" y="279" fill="#01665e" font-family="Verdana" font-size="12">0,N</text>
<line x1="196" y1="220" x2="73" y2="220" stroke="#bf812d" stroke-width="2"/>
<text x="127" y="237.0" fill="#01665e" font-family="Verdana" font-size="12">1,1</text>
<g id="association-pratiquer">
	<path d="M 94 195 a 14 14 90 0 1 14 14 V 220 h -70 V 209 a 14 14 90 0 1 14 -14" fill="#dfc27d" stroke="#dfc27d" stroke-width="0"/>
	<path d="M 108 220.0 v 11 a 14 14 90 0 1 -14 14 H 52 a 14 14 90 0 1 -14 -14 V 220.0 H 70" fill="#f6e8c3" stroke="#f6e8c3" stroke-width="0"/>
	<rect x="38" y="195" width="70" height="50" fill="none" rx="14" stroke="#bf812d" stroke-width="2"/>
	<line x1="38" y1="220" x2="108" y2="220" stroke="#bf812d" stroke-width="1"/>
	<text x="45" y="212.7" fill="#000000" font-family="Verdana" font-size="12">pratiquer</text>
</g>

<!-- Association est_membre -->
<line x1="339" y1="321" x2="196" y2="321" stroke="#bf812d" stroke-width="2"/>
<text x="247" y="338.0" fill="#01665e" font-family="Verdana" font-size="12">0,N</text>
<line x1="196" y1="220" x2="196" y2="321" stroke="#bf812d" stroke-width="2"/>
<text x="201.0" y="271" fill="#01665e" font-family="Verdana" font-size="12">0,N</text>
<g id="association-est_membre">
	<path d="M 228 296 a 14 14 90 0 1 14 14 V 321 h -92 V 310 a 14 14 90 0 1 14 -14" fill="#dfc27d" stroke="#dfc27d" stroke-width="0"/>
	<path d="M 242 321.0 v 11 a 14 14 90 0 1 -14 14 H 164 a 14 14 90 0 1 -14 -14 V 321.0 H 92" fill="#f6e8c3" stroke="#f6e8c3" stroke-width="0"/>
	<rect x="150" y="296" width="92" height="50" fill="none" rx="14" stroke="#bf812d" stroke-width="2"/>
	<line x1="150" y1="321" x2="242" y2="321" stroke="#bf812d" stroke-width="1"/>
	<text x="157" y="313.7" fill="#000000" font-family="Verdana" font-size="12">est_membre</text>
</g>

<!-- Entity Participant -->
<g id="entity-Participant">
	<g id="frame-Participant">
		<rect x="274" y="270" width="130" height="25" fill="#80cdc1" stroke="#80cdc1" stroke-width="0"/>
		<rect x="274" y="295.0" width="130" height="77" fill="#c7eae5" stroke="#c7eae5" stroke-width="0"/>
		<rect x="274" y="270" width="130" height="102" fill="none" stroke="#35978f" stroke-width="2"/>
		<line x1="274" y1="295" x2="404" y2="295" stroke="#35978f" stroke-width="1"/>
	</g>
	<text x="306" y="287.7" fill="#000000" font-family="Verdana" font-size="12">Participant</text>
	<text x="279" y="312.7" fill="#000000" font-family="Verdana" font-size="12">id_participant</text>
	<line x1="279" y1="315" x2="363" y2="315" stroke="#000000" stroke-width="1"/>
	<text x="279" y="329.8" fill="#000000" font-family="Verdana" font-size="12">pseudo_participant</text>
	<text x="279" y="346.8" fill="#000000" font-family="Verdana" font-size="12">nom_participant</text>
	<text x="279" y="363.8" fill="#000000" font-family="Verdana" font-size="12">prenom_participant</text>
</g>

<!-- Entity Equipe -->
<g id="entity-Equipe">
	<g id="frame-Equipe">
		<rect x="153" y="186" width="86" height="25" fill="#80cdc1" stroke="#80cdc1" stroke-width="0"/>
		<rect x="153" y="211.0" width="86" height="43" fill="#c7eae5" stroke="#c7eae5" stroke-width="0"/>
		<rect x="153" y="186" width="86" height="68" fill="none" stroke="#35978f" stroke-width="2"/>
		<line x1="153" y1="211" x2="239" y2="211" stroke="#35978f" stroke-width="1"/>
	</g>
	<text x="175" y="203.7" fill="#000000" font-family="Verdana" font-size="12">Equipe</text>
	<text x="158" y="228.8" fill="#000000" font-family="Verdana" font-size="12">id_equipe</text>
	<line x1="158" y1="231" x2="218" y2="231" stroke="#000000" stroke-width="1"/>
	<text x="158" y="245.8" fill="#000000" font-family="Verdana" font-size="12">nom_equipe</text>
</g>

<!-- Entity Activite -->
<g id="entity-Activite">
	<g id="frame-Activite">
		<rect x="28" y="287" width="90" height="25" fill="#80cdc1" stroke="#80cdc1" stroke-width="0"/>
		<rect x="28" y="312.0" width="90" height="43" fill="#c7eae5" stroke="#c7eae5" stroke-width="0"/>
		<rect x="28" y="287" width="90" height="68" fill="none" stroke="#35978f" stroke-width="2"/>
		<line x1="28" y1="312" x2="118" y2="312" stroke="#35978f" stroke-width="1"/>
	</g>
	<text x="50" y="304.7" fill="#000000" font-family="Verdana" font-size="12">Activite</text>
	<text x="33" y="329.8" fill="#000000" font-family="Verdana" font-size="12">id_activite</text>
	<line x1="33" y1="332" x2="96" y2="332" stroke="#000000" stroke-width="1"/>
	<text x="33" y="346.8" fill="#000000" font-family="Verdana" font-size="12">nom_activite</text>
</g>

<!-- Entity Match -->
<g id="entity-Match">
	<g id="frame-Match">
		<rect x="9" y="9" width="128" height="25" fill="#80cdc1" stroke="#80cdc1" stroke-width="0"/>
		<rect x="9" y="34.0" width="128" height="127" fill="#c7eae5" stroke="#c7eae5" stroke-width="0"/>
		<rect x="9" y="9" width="128" height="152" fill="none" stroke="#35978f" stroke-width="2"/>
		<line x1="9" y1="34" x2="137" y2="34" stroke="#35978f" stroke-width="1"/>
	</g>
	<text x="54" y="26.7" fill="#000000" font-family="Verdana" font-size="12">Match</text>
	<text x="14" y="51.7" fill="#000000" font-family="Verdana" font-size="12">id_match</text>
	<line x1="14" y1="54" x2="71" y2="54" stroke="#000000" stroke-width="1"/>
	<text x="14" y="68.7" fill="#000000" font-family="Verdana" font-size="12">equipe1_match</text>
	<text x="14" y="85.8" fill="#000000" font-family="Verdana" font-size="12">equipe2_match</text>
	<text x="14" y="102.8" fill="#000000" font-family="Verdana" font-size="12">kicekigagne_match</text>
	<text x="14" y="119.8" fill="#000000" font-family="Verdana" font-size="12">parent_match</text>
	<text x="14" y="136.8" fill="#000000" font-family="Verdana" font-size="12">type_match</text>
	<text x="14" y="153.8" fill="#000000" font-family="Verdana" font-size="12">score_match</text>
</g>

<!-- Entity Tournoi -->
<g id="entity-Tournoi">
	<g id="frame-Tournoi">
		<rect x="293" y="43" width="92" height="25" fill="#80cdc1" stroke="#80cdc1" stroke-width="0"/>
		<rect x="293" y="68.0" width="92" height="59" fill="#c7eae5" stroke="#c7eae5" stroke-width="0"/>
		<rect x="293" y="43" width="92" height="84" fill="none" stroke="#35978f" stroke-width="2"/>
		<line x1="293" y1="68" x2="385" y2="68" stroke="#35978f" stroke-width="1"/>
	</g>
	<text x="315" y="60.7" fill="#000000" font-family="Verdana" font-size="12">Tournoi</text>
	<text x="298" y="85.8" fill="#000000" font-family="Verdana" font-size="12">id_tournoi</text>
	<line x1="298" y1="88" x2="360" y2="88" stroke="#000000" stroke-width="1"/>
	<text x="298" y="102.8" fill="#000000" font-family="Verdana" font-size="12">nom_tournoi</text>
	<text x="298" y="119.8" fill="#000000" font-family="Verdana" font-size="12">regle_tournoi</text>
</g>
</svg>